<?xml version="1.0" encoding="UTF-8" standalone="no"?>
<!-- Created with Inkscape (http://www.inkscape.org/) -->

<svg
   width="1000"
   height="500"
   viewBox="0 0 264.58333 132.29167"
   version="1.1"
   id="svg1"
   xml:space="preserve"
   inkscape:version="1.3.1 (9b9bdc1480, 2023-11-25, custom)"
   sodipodi:docname="logo.svg"
   xmlns:inkscape="http://www.inkscape.org/namespaces/inkscape"
   xmlns:sodipodi="http://sodipodi.sourceforge.net/DTD/sodipodi-0.dtd"
   xmlns:xlink="http://www.w3.org/1999/xlink"
   xmlns="http://www.w3.org/2000/svg"
   xmlns:svg="http://www.w3.org/2000/svg"><sodipodi:namedview
     id="namedview1"
     pagecolor="#ffffff"
     bordercolor="#666666"
     borderopacity="1.0"
     inkscape:showpageshadow="2"
     inkscape:pageopacity="0.0"
     inkscape:pagecheckerboard="0"
     inkscape:deskcolor="#d1d1d1"
     inkscape:document-units="mm"
     inkscape:zoom="2.7943614"
     inkscape:cx="497.25136"
     inkscape:cy="237.08458"
     inkscape:window-width="3440"
     inkscape:window-height="1339"
     inkscape:window-x="0"
     inkscape:window-y="32"
     inkscape:window-maximized="1"
     inkscape:current-layer="layer2" /><defs
     id="defs1" /><g
     inkscape:label="Layer 1"
     inkscape:groupmode="layer"
     id="layer1"
     style="display:inline"><image
       width="398.37189"
       height="165.9883"
       preserveAspectRatio="none"
       xlink:href="../a4a2f7ae/game-changer.png"
       id="image1"
       x="210.71176"
       y="3.5639892"
       style="opacity:0.372222;stroke-width:1.3602" /></g><g
     inkscape:groupmode="layer"
     id="layer2"
     inkscape:label="Layer 2"><path
       style="fill:#502d16;fill-rule:evenodd;stroke:#000000;stroke-width:0.264583px;stroke-linecap:butt;stroke-linejoin:miter;stroke-opacity:1"
       d="m 54.740229,72.999957 1.785585,-19.533994 19.910175,-20.044166 24.673891,0.964224 c 1.87946,-3.726708 4.91481,-7.73153 11.81223,-10.949033 3.61721,-2.451951 10.8248,-4.947215 19.3958,-5.201547 10.37333,-0.199302 14.77363,2.306628 21.34834,6.046354 2.26711,0.32386 2.11587,-3.942345 3.0614,-6.126859 4.91178,0.317942 10.29619,-0.199962 14.6399,1.122633 -2.31441,6.95978 -1.25199,7.146228 -1.24013,9.439909 l 30.51786,7.35875 0.93026,8.871233 0.38836,11.791999 14.82704,16.518297 z"
       id="path11"
       sodipodi:nodetypes="ccccccccccccccc" /><path
       sodipodi:type="star"
       style="opacity:1;fill:#c87137;fill-rule:evenodd;stroke:#000000;stroke-width:0.264403;stroke-linejoin:bevel"
       id="path7"
       inkscape:flatsided="false"
       sodipodi:sides="19"
       sodipodi:cx="63.969769"
       sodipodi:cy="58.279049"
       sodipodi:r1="17.203684"
       sodipodi:r2="20.004282"
       sodipodi:arg1="0.33154362"
       sodipodi:arg2="0.4968906"
       inkscape:rounded="0.5"
       inkscape:randomized="0"
       d="m 80.236557,63.878899 c -0.675581,1.96247 2.307736,2.111573 1.318357,3.936081 -0.98938,1.824507 -2.741815,-0.594456 -4.018005,1.042321 -1.276189,1.636777 1.49707,2.746483 -0.03112,4.150883 -1.528188,1.404399 -2.400236,-1.452512 -4.138739,-0.318798 -1.738502,1.133714 0.524173,3.083768 -1.377222,3.915872 -1.901395,0.832103 -1.798555,-2.153166 -3.810977,-1.645371 -2.012422,0.507795 -0.505527,3.08688 -2.574082,3.256516 -2.068556,0.169635 -1.001973,-2.620492 -3.070237,-2.793643 -2.068264,-0.173151 -1.480444,2.75548 -3.492,2.244266 -2.011556,-0.511215 -0.09681,-2.803846 -1.996789,-3.63918 -1.899978,-0.835333 -2.294932,2.125481 -4.031506,0.988815 -1.736573,-1.136667 0.818842,-2.683361 -0.706958,-4.090355 -1.525799,-1.406995 -2.860729,1.265153 -4.134135,-0.37379 -1.273406,-1.638943 1.645761,-2.272091 0.659484,-4.098277 -0.986278,-1.826186 -3.116522,0.267727 -3.788767,-1.695888 -0.672246,-1.963616 2.294335,-1.614606 1.954459,-3.662088 -0.339877,-2.047482 -3.034591,-0.758712 -3.032827,-2.834211 0.0018,-2.075499 2.694283,-0.782152 3.037639,-2.829053 0.343355,-2.046902 -2.623815,-1.702933 -1.948234,-3.665403 0.675582,-1.96247 2.802265,0.135059 3.791644,-1.689448 0.989379,-1.824507 -1.928708,-2.462615 -0.652518,-4.099392 1.276189,-1.636777 2.606576,1.037636 4.134764,-0.366764 1.528188,-1.4044 -1.024595,-2.955434 0.713907,-4.089148 1.738503,-1.133714 2.128425,1.827768 4.02982,0.995664 1.901395,-0.832103 -0.0095,-3.127986 2.00297,-3.635781 2.012422,-0.507795 1.419626,2.419832 3.488181,2.250196 2.068556,-0.169635 1.006716,-2.961571 3.07498,-2.788421 2.068264,0.173151 0.556989,2.749671 2.568545,3.260886 2.011556,0.511214 1.913789,-2.474226 3.813767,-1.638893 1.899978,0.835333 -0.366007,2.78154 1.370566,3.918207 1.736574,1.136666 2.613475,-1.718759 4.139275,-0.311765 1.5258,1.406995 -1.249341,2.511986 0.02407,4.150929 1.273406,1.638944 3.029949,-0.777037 4.016227,1.049149 0.986277,1.826186 -1.997289,1.970219 -1.325043,3.933834 0.672245,1.963615 3.118082,0.248888 3.457959,2.296369 0.339876,2.047482 -2.528799,1.214949 -2.530563,3.290448 -0.0018,2.075499 2.868323,1.247842 2.524967,3.294743 -0.343355,2.046902 -2.786274,0.32802 -3.461856,2.29049 z"
       inkscape:transform-center-x="-1.443311"
       inkscape:transform-center-y="-2.4641134"
       transform="matrix(0.75598659,0,0,0.75685492,29.748415,-9.2999417)" /><ellipse
       style="opacity:1;fill:#c87137;fill-rule:evenodd;stroke:#000000;stroke-width:0.2;stroke-linejoin:bevel"
       id="path2"
       cx="118.07137"
       cy="106.61159"
       rx="17.062431"
       ry="17.081728" /><ellipse
       style="opacity:1;fill:#c87137;fill-rule:evenodd;stroke:#000000;stroke-width:0.2;stroke-linejoin:bevel"
       id="circle10"
       cx="135.36157"
       cy="52.084015"
       rx="21.65801"
       ry="21.682514" /><path
       sodipodi:type="star"
       style="opacity:1;fill:#c87137;fill-rule:evenodd;stroke:#000000;stroke-width:0.208433;stroke-linejoin:bevel"
       id="path8"
       inkscape:flatsided="false"
       sodipodi:sides="19"
       sodipodi:cx="63.969769"
       sodipodi:cy="58.279049"
       sodipodi:r1="17.203684"
       sodipodi:r2="20.004282"
       sodipodi:arg1="0.33154362"
       sodipodi:arg2="0.4968906"
       inkscape:rounded="0.5"
       inkscape:randomized="0"
       d="m 80.236557,63.878899 c -0.675581,1.96247 2.307736,2.111573 1.318357,3.936081 -0.98938,1.824507 -2.741815,-0.594456 -4.018005,1.042321 -1.276189,1.636777 1.49707,2.746483 -0.03112,4.150883 -1.528188,1.404399 -2.400236,-1.452512 -4.138739,-0.318798 -1.738502,1.133714 0.524173,3.083768 -1.377222,3.915872 -1.901395,0.832103 -1.798555,-2.153166 -3.810977,-1.645371 -2.012422,0.507795 -0.505527,3.08688 -2.574082,3.256516 -2.068556,0.169635 -1.001973,-2.620492 -3.070237,-2.793643 -2.068264,-0.173151 -1.480444,2.75548 -3.492,2.244266 -2.011556,-0.511215 -0.09681,-2.803846 -1.996789,-3.63918 -1.899978,-0.835333 -2.294932,2.125481 -4.031506,0.988815 -1.736573,-1.136667 0.818842,-2.683361 -0.706958,-4.090355 -1.525799,-1.406995 -2.860729,1.265153 -4.134135,-0.37379 -1.273406,-1.638943 1.645761,-2.272091 0.659484,-4.098277 -0.986278,-1.826186 -3.116522,0.267727 -3.788767,-1.695888 -0.672246,-1.963616 2.294335,-1.614606 1.954459,-3.662088 -0.339877,-2.047482 -3.034591,-0.758712 -3.032827,-2.834211 0.0018,-2.075499 2.694283,-0.782152 3.037639,-2.829053 0.343355,-2.046902 -2.623815,-1.702933 -1.948234,-3.665403 0.675582,-1.96247 2.802265,0.135059 3.791644,-1.689448 0.989379,-1.824507 -1.928708,-2.462615 -0.652518,-4.099392 1.276189,-1.636777 2.606576,1.037636 4.134764,-0.366764 1.528188,-1.4044 -1.024595,-2.955434 0.713907,-4.089148 1.738503,-1.133714 2.128425,1.827768 4.02982,0.995664 1.901395,-0.832103 -0.0095,-3.127986 2.00297,-3.635781 2.012422,-0.507795 1.419626,2.419832 3.488181,2.250196 2.068556,-0.169635 1.006716,-2.961571 3.07498,-2.788421 2.068264,0.173151 0.556989,2.749671 2.568545,3.260886 2.011556,0.511214 1.913789,-2.474226 3.813767,-1.638893 1.899978,0.835333 -0.366007,2.78154 1.370566,3.918207 1.736574,1.136666 2.613475,-1.718759 4.139275,-0.311765 1.5258,1.406995 -1.249341,2.511986 0.02407,4.150929 1.273406,1.638944 3.029949,-0.777037 4.016227,1.049149 0.986277,1.826186 -1.997289,1.970219 -1.325043,3.933834 0.672245,1.963615 3.118082,0.248888 3.457959,2.296369 0.339876,2.047482 -2.528799,1.214949 -2.530563,3.290448 -0.0018,2.075499 2.868323,1.247842 2.524967,3.294743 -0.343355,2.046902 -2.786274,0.32802 -3.461856,2.29049 z"
       inkscape:transform-center-x="-1.8308799"
       inkscape:transform-center-y="-3.1257936"
       transform="matrix(0.95899618,0,0,0.96009107,135.53979,-13.979012)" /><ellipse
       style="opacity:1;fill:#1a1a1a;fill-rule:evenodd;stroke:#000000;stroke-width:0.2;stroke-linejoin:bevel"
       id="circle15"
       cx="196.76981"
       cy="41.975388"
       rx="2.3017311"
       ry="2.3043339" /><path
       style="fill:#d38d5f;fill-rule:evenodd;stroke:#000000;stroke-width:0.264583px;stroke-linecap:butt;stroke-linejoin:miter;stroke-opacity:1"
       d="m 176.63051,26.469162 -5.7013,3.122838 c -2.13494,6.133655 -3.28052,4.860353 -5.39283,6.617895 l -0.14325,35.333802 29.49394,-1.44828 2.56916,-28.277115 c -4.41946,-3.117156 -12.10828,-1.879588 -13.75739,-10.701861 l -0.31178,-9.295955 c -1.94217,4.170472 -8.75826,-3.564534 -6.75655,4.648676 z"
       id="path13"
       sodipodi:nodetypes="ccccccccc" /><g
       id="g46"
       transform="rotate(-1.1002192,1911.291,-709.2563)"><path
         sodipodi:type="star"
         style="opacity:1;fill:#c87137;fill-rule:evenodd;stroke:#000000;stroke-width:0.208433;stroke-linejoin:bevel"
         id="path46"
         inkscape:flatsided="false"
         sodipodi:sides="19"
         sodipodi:cx="63.969769"
         sodipodi:cy="58.279049"
         sodipodi:r1="17.203684"
         sodipodi:r2="20.004282"
         sodipodi:arg1="0.33154362"
         sodipodi:arg2="0.4968906"
         inkscape:rounded="0.5"
         inkscape:randomized="0"
         d="m 80.236557,63.878899 c -0.675581,1.96247 2.307736,2.111573 1.318357,3.936081 -0.98938,1.824507 -2.741815,-0.594456 -4.018005,1.042321 -1.276189,1.636777 1.49707,2.746483 -0.03112,4.150883 -1.528188,1.404399 -2.400236,-1.452512 -4.138739,-0.318798 -1.738502,1.133714 0.524173,3.083768 -1.377222,3.915872 -1.901395,0.832103 -1.798555,-2.153166 -3.810977,-1.645371 -2.012422,0.507795 -0.505527,3.08688 -2.574082,3.256516 -2.068556,0.169635 -1.001973,-2.620492 -3.070237,-2.793643 -2.068264,-0.173151 -1.480444,2.75548 -3.492,2.244266 -2.011556,-0.511215 -0.09681,-2.803846 -1.996789,-3.63918 -1.899978,-0.835333 -2.294932,2.125481 -4.031506,0.988815 -1.736573,-1.136667 0.818842,-2.683361 -0.706958,-4.090355 -1.525799,-1.406995 -2.860729,1.265153 -4.134135,-0.37379 -1.273406,-1.638943 1.645761,-2.272091 0.659484,-4.098277 -0.986278,-1.826186 -3.116522,0.267727 -3.788767,-1.695888 -0.672246,-1.963616 2.294335,-1.614606 1.954459,-3.662088 -0.339877,-2.047482 -3.034591,-0.758712 -3.032827,-2.834211 0.0018,-2.075499 2.694283,-0.782152 3.037639,-2.829053 0.343355,-2.046902 -2.623815,-1.702933 -1.948234,-3.665403 0.675582,-1.96247 2.802265,0.135059 3.791644,-1.689448 0.989379,-1.824507 -1.928708,-2.462615 -0.652518,-4.099392 1.276189,-1.636777 2.606576,1.037636 4.134764,-0.366764 1.528188,-1.4044 -1.024595,-2.955434 0.713907,-4.089148 1.738503,-1.133714 2.128425,1.827768 4.02982,0.995664 1.901395,-0.832103 -0.0095,-3.127986 2.00297,-3.635781 2.012422,-0.507795 1.419626,2.419832 3.488181,2.250196 2.068556,-0.169635 1.006716,-2.961571 3.07498,-2.788421 2.068264,0.173151 0.556989,2.749671 2.568545,3.260886 2.011556,0.511214 1.913789,-2.474226 3.813767,-1.638893 1.899978,0.835333 -0.366007,2.78154 1.370566,3.918207 1.736574,1.136666 2.613475,-1.718759 4.139275,-0.311765 1.5258,1.406995 -1.249341,2.511986 0.02407,4.150929 1.273406,1.638944 3.029949,-0.777037 4.016227,1.049149 0.986277,1.826186 -1.997289,1.970219 -1.325043,3.933834 0.672245,1.963615 3.118082,0.248888 3.457959,2.296369 0.339876,2.047482 -2.528799,1.214949 -2.530563,3.290448 -0.0018,2.075499 2.868323,1.247842 2.524967,3.294743 -0.343355,2.046902 -2.786274,0.32802 -3.461856,2.29049 z"
         inkscape:transform-center-x="-1.8308799"
         inkscape:transform-center-y="-3.1257936"
         transform="matrix(0.95899618,0,0,0.96009107,135.53979,-13.979012)" /><ellipse
         style="opacity:1;fill:#1a1a1a;fill-rule:evenodd;stroke:#000000;stroke-width:0.2;stroke-linejoin:bevel"
         id="ellipse46"
         cx="196.76981"
         cy="41.975388"
         rx="2.3017311"
         ry="2.3043339" /></g><g
       id="g47"
       transform="matrix(0.92922863,0.06633727,-0.06539612,0.91604534,2.257786,3.5171287)"
       style="stroke-width:1.08113"><path
         sodipodi:type="star"
         style="opacity:1;fill:#c87137;fill-rule:evenodd;stroke:#000000;stroke-width:0.306808;stroke-linejoin:bevel"
         id="path10"
         inkscape:flatsided="false"
         sodipodi:sides="12"
         sodipodi:cx="63.969769"
         sodipodi:cy="58.279049"
         sodipodi:r1="15.803383"
         sodipodi:r2="20.004282"
         sodipodi:arg1="0.33154362"
         sodipodi:arg2="0.59334301"
         inkscape:rounded="0.7"
         inkscape:randomized="0"
         d="m 78.912515,63.423097 c -1.426428,4.143575 4.092586,2.407862 1.642326,6.041061 -2.45026,3.6332 -2.909188,-2.134087 -6.216298,0.741141 -3.30711,2.875227 2.340352,4.131562 -1.598235,6.052875 -3.938587,1.921313 -1.452387,-3.302768 -5.754042,-2.466303 -4.301656,0.836465 -0.03898,4.748214 -4.41055,4.442827 -4.371573,-0.305388 0.393579,-3.586475 -3.749996,-5.012902 -4.143575,-1.426428 -2.407861,4.092585 -6.041061,1.642325 -3.633199,-2.450259 2.134087,-2.909188 -0.74114,-6.216298 -2.875228,-3.30711 -4.131562,2.340352 -6.052875,-1.598235 -1.921314,-3.938586 3.302767,-1.452387 2.466302,-5.754042 -0.836465,-4.301655 -4.748214,-0.03898 -4.442826,-4.41055 0.305387,-4.371572 3.586474,0.39358 5.012902,-3.749995 1.426428,-4.143575 -4.092586,-2.407862 -1.642326,-6.041061 2.45026,-3.6332 2.909188,2.134087 6.216298,-0.741141 3.307111,-2.875227 -2.340352,-4.131562 1.598235,-6.052875 3.938587,-1.921313 1.452387,3.302767 5.754042,2.466303 4.301656,-0.836465 0.03898,-4.748214 4.41055,-4.442827 4.371573,0.305388 -0.393579,3.586474 3.749996,5.012902 4.143575,1.426428 2.407861,-4.092585 6.041061,-1.642326 3.633199,2.45026 -2.134087,2.909188 0.74114,6.216299 2.875228,3.30711 4.131562,-2.340352 6.052876,1.598234 1.921313,3.938587 -3.302768,1.452388 -2.466303,5.754043 0.836465,4.301655 4.748214,0.03898 4.442826,4.410549 -0.305387,4.371573 -3.586474,-0.393579 -5.012902,3.749996 z"
         inkscape:transform-center-x="-1.3447432"
         inkscape:transform-center-y="-2.295793"
         transform="matrix(0.70435829,0,0,0.70515492,21.276194,10.575791)" /><ellipse
         style="opacity:1;fill:#1a1a1a;fill-rule:evenodd;stroke:#000000;stroke-width:0.216225;stroke-linejoin:bevel"
         id="circle14"
         cx="66.333809"
         cy="51.671532"
         rx="2.3017311"
         ry="2.3043339" /></g><path
       style="opacity:1;fill:#a05a2c;fill-rule:evenodd;stroke:#000000;stroke-width:0.264583px;stroke-linecap:butt;stroke-linejoin:miter;stroke-opacity:1"
       d="m 3.8001771,58.283701 c 2.208757,6.124086 1.988334,13.667756 12.0793379,15.185446 5.130837,9.73448 2.405268,19.10058 -0.75271,28.446403 5.159468,2.53814 8.149784,6.27002 9.83339,10.72101 2.896754,-2.83083 6.149403,-5.45223 13.696402,-5.54654 L 229.8958,106.38973 c 10.16929,0.96954 11.74717,3.72354 15.86662,5.94966 0.59021,-4.49133 3.00305,-7.63542 8.24588,-8.68765 -3.70945,-8.983343 -6.87712,-18.103893 -3.56785,-28.864393 10.565,-4.87414 7.68439,-10.94919 10.25557,-16.397651 -3.98263,0.777671 -2.33737,1.783801 -19.18322,2.486771 l -1.35176,5.42107 -60.26861,-1.06599 c -1.76829,0.54215 -5.19876,0.003 -5.52269,3.88786 l -71.33638,0.61488 c -0.73672,-2.63678 -1.98482,-4.12678 -3.88876,-4.1461 l -68.743038,0.91401 -6.607772,-5.20608 c -9.23894,1.22402 -12.178908,1.08124 -19.9936129,-3.012416 z"
       id="path6"
       sodipodi:nodetypes="ccccccccccccccccccc" /><path
       style="font-size:28.7073px;line-height:125%;font-family:Lusitana;-inkscape-font-specification:Lusitana;letter-spacing:0px;word-spacing:0px;fill:#f9f9f9;stroke-width:0.264583px"
       d="m 160.09226,74.493727 c -1.84953,6.481974 -3.64957,12.990139 -5.52954,19.455999 -0.33083,1.157658 -1.18297,1.90527 -2.11407,1.962872 -0.66959,-0.141358 -0.90387,0.118869 -0.61018,0.973893 0.19559,0.525512 0.0493,1.629111 0.47173,1.774313 2.27838,-0.20183 4.55768,-0.08856 6.83716,0.01258 -0.1794,-0.901236 -0.35794,-1.802765 -0.53726,-2.704024 -0.65152,-0.164962 -1.57772,0.04966 -1.99043,-0.76491 2.9e-4,-1.192991 0.54732,-2.267768 0.78142,-3.406584 0.22038,-0.586907 0.18978,-1.642327 0.8904,-1.332726 1.69639,0 3.39277,0 5.08916,0 0.55422,1.735815 1.1839,3.465148 1.62713,5.240304 -0.6732,0.4063 -1.44435,0.292768 -2.1661,0.319831 0.14072,0.887997 0.28376,1.775362 0.42298,2.663765 2.48467,-0.308428 5.03634,-0.215432 7.53874,0.0089 -0.16938,-0.894272 -0.33973,-1.78823 -0.51168,-2.681658 -0.65489,0.0018 -1.48951,-0.0254 -1.75335,-0.993041 -1.03288,-2.79268 -1.79678,-5.745171 -2.71875,-8.603513 -1.25911,-4.107398 -2.51964,-8.214057 -3.77787,-12.321918 -0.61231,0 -1.22461,0 -1.83692,0 -0.0375,0.131959 -0.075,0.263917 -0.11257,0.395875 z m 2.31961,13.050437 c -1.27749,0 -2.55498,0 -3.83247,0 0.59241,-2.135933 1.18481,-4.271865 1.77723,-6.407798 0.68507,2.135933 1.37016,4.271865 2.05524,6.407798 z"
       id="path37" /><path
       style="font-size:28.7073px;line-height:125%;font-family:Lusitana;-inkscape-font-specification:Lusitana;letter-spacing:0px;word-spacing:0px;fill:#f9f9f9;stroke-width:0.264583px"
       d="m 57.159603,74.493727 c -1.850729,6.481631 -3.646052,12.992637 -5.531244,19.455999 -0.366133,1.334454 -1.440356,2.056927 -2.484029,1.977135 -0.748742,-0.233726 -0.118943,0.992064 -0.147438,1.519119 0.110566,0.639785 0.07857,1.528329 0.764392,1.196156 2.15098,-0.197173 4.3031,-0.04802 6.455125,0.03124 -0.180997,-0.901076 -0.360286,-1.802739 -0.540674,-2.704024 -0.651134,-0.151575 -1.512147,0.02478 -1.975078,-0.706759 -0.06811,-1.136364 0.498384,-2.166195 0.708539,-3.249286 0.268301,-0.497443 0.149969,-1.716634 0.774987,-1.548175 1.754603,0 3.509205,0 5.263807,0 0.561066,1.734779 1.164492,3.45262 1.63396,5.233593 -0.672705,0.416782 -1.450525,0.297663 -2.174634,0.326542 0.140719,0.887997 0.28376,1.775362 0.422989,2.663765 2.484692,-0.308126 5.03634,-0.215751 7.538729,0.0089 -0.170461,-0.893733 -0.338651,-1.788209 -0.509973,-2.681658 -0.65001,-5.33e-4 -1.480413,-0.02092 -1.748235,-0.977384 -1.026971,-2.760788 -1.779477,-5.684901 -2.692986,-8.512925 -1.269975,-4.142814 -2.541352,-8.284888 -3.810447,-12.428163 -0.61174,0 -1.223481,0 -1.835221,0 -0.03752,0.131959 -0.07505,0.263917 -0.112569,0.395875 z m 2.319609,13.050437 c -1.278059,0 -2.556118,0 -3.834177,0 0.59241,-2.136679 1.18482,-4.273356 1.77723,-6.410035 0.685649,2.136679 1.371298,4.273356 2.056947,6.410035 z"
       id="path36" /><path
       style="font-size:28.7073px;line-height:125%;font-family:Lusitana;-inkscape-font-specification:Lusitana;letter-spacing:0px;word-spacing:0px;fill:#f9f9f9;stroke-width:0.264583px"
       d="m 210.81324,74.728537 c 0.19186,0.584001 0.0508,1.654508 0.46894,1.907097 0.55411,0.117042 1.19508,0.03178 1.68693,0.39658 0.0961,2.922577 0.0132,5.873741 0.0409,8.8072 -0.0184,3.245899 0.0366,6.499841 -0.0273,9.740747 -0.11832,0.503647 -0.723,0.235894 -1.01142,0.41824 -0.35308,0.208345 -1.32245,-0.186114 -1.06054,0.62082 0.0985,0.714616 0.19624,1.429393 0.29644,2.143592 3.51927,-0.211416 7.04047,0.02509 10.56127,-0.0833 1.00561,-0.04467 2.02396,0.04655 3.02208,-0.07774 0.73343,-0.712498 0.82007,-2.068133 1.1581,-3.111081 0.28036,-1.324731 0.67155,-2.638067 0.6993,-4.028078 -0.54839,-0.128579 -1.09708,-0.254923 -1.64591,-0.380219 -0.47498,1.954607 -1.30026,4.19078 -2.99205,4.63681 -1.4749,0.38792 -2.99855,0.154207 -4.49381,0.185254 -0.46854,-0.07431 -1.26092,0.02329 -1.25893,-0.864552 -0.0998,-2.428106 -0.0136,-4.870115 -0.0424,-7.303433 1.3534,0.03584 2.71687,-0.0699 4.06444,0.0492 0.36001,0.340377 0.18171,1.13146 0.2659,1.644315 0.10693,0.524943 -0.27577,1.813287 0.45238,1.374668 0.39474,-0.211002 1.20551,0.04025 1.31354,-0.488037 -0.0687,-3.13757 -0.0478,-6.275233 0.005,-9.412898 -0.58405,0.11328 -1.16778,0.229462 -1.75164,0.344433 -0.0717,1.098042 0.11123,2.35714 -0.33941,3.330266 -1.31786,0.166427 -2.6764,0.02428 -4.00986,0.07157 0,-2.554919 0,-5.109837 0,-7.664755 1.47763,-0.344292 2.99625,-0.177108 4.49083,-0.212475 1.05277,-0.0095 2.12691,0.764221 2.41497,2.159792 0.18547,0.638622 0.26754,1.316221 0.36515,1.984588 0.53822,0.07032 1.07676,0.136166 1.6152,0.203529 0.10097,-2.139843 0.33117,-4.333132 0,-6.45253 -0.0489,-0.878976 -0.80272,-0.429657 -1.25838,-0.541038 -4.38246,-0.05806 -8.7661,0.04452 -13.14707,-0.145591 0.0392,0.249006 0.0785,0.498012 0.11768,0.747016 z"
       id="path35" /><path
       style="font-size:28.7073px;line-height:125%;font-family:Lusitana;-inkscape-font-specification:Lusitana;letter-spacing:0px;word-spacing:0px;fill:#f9f9f9;stroke-width:0.264583px"
       d="m 92.363187,74.726337 c 0.19108,0.585053 0.0493,1.655694 0.46723,1.909333 0.55538,0.112095 1.18513,0.03977 1.68522,0.387634 0.10017,2.73429 0.0137,5.498077 0.0426,8.243582 -0.0183,3.436755 0.0366,6.881548 -0.0273,10.313311 -0.12507,0.503116 -0.72862,0.238863 -1.02336,0.420477 -0.40078,0.189113 -1.37051,-0.177227 -1.03342,0.731354 0.0939,0.677038 0.18772,1.354104 0.28297,2.030821 3.5187,-0.211461 7.03935,0.02512 10.559563,-0.0833 1.00561,-0.04467 2.02397,0.04655 3.02208,-0.07774 0.73453,-0.711239 0.82106,-2.067734 1.15811,-3.111081 0.28143,-1.324417 0.67224,-2.637796 0.69929,-4.028078 -0.54785,-0.128315 -1.0959,-0.255171 -1.6442,-0.380219 -0.47512,1.98273 -1.33529,4.249792 -3.05787,4.658548 -1.45663,0.349203 -2.95432,0.138865 -4.427983,0.163516 -0.47704,-0.06934 -1.26963,0.01695 -1.26357,-0.882177 -0.0894,-2.423056 -0.0118,-4.858234 -0.0378,-7.285808 1.35501,0.03674 2.720913,-0.072 4.069553,0.05144 0.36251,0.428646 0.19055,1.277415 0.26323,1.868846 0.0324,0.602849 -0.18519,1.594229 0.5367,1.130406 0.39587,-0.246632 1.36284,0.141956 1.22213,-0.699537 -0.0664,-3.06124 -0.0401,-6.122587 0.008,-9.183904 -0.58406,0.11328 -1.16778,0.229462 -1.75165,0.344433 -0.0757,1.093044 0.11629,2.355413 -0.33429,3.325793 -1.28105,0.176947 -2.607913,0.02571 -3.906493,0.07604 -0.2546,-0.361727 -0.0317,-1.34955 -0.10678,-1.946718 0,-1.906012 0,-3.812025 0,-5.718037 1.47777,-0.342102 2.996103,-0.17866 4.490833,-0.212475 1.05365,-0.0075 2.13284,0.765503 2.4162,2.168985 0.18401,0.636131 0.26526,1.310822 0.36563,1.975395 0.53706,0.07054 1.07448,0.136322 1.61178,0.203529 0.10145,-2.139996 0.33068,-4.332497 0.002,-6.45253 -0.0489,-0.878976 -0.80272,-0.429657 -1.25838,-0.541036 -4.38188,-0.05812 -8.764953,0.04464 -13.145363,-0.145593 0.0387,0.24826 0.0773,0.496521 0.11598,0.74478 z"
       id="path34" /><path
       style="font-size:28.7073px;line-height:125%;font-family:Lusitana;-inkscape-font-specification:Lusitana;letter-spacing:0px;word-spacing:0px;fill:#f9f9f9;stroke-width:0.264583px"
       d="m 132.87437,74.726337 c 0.19145,0.582429 0.0469,1.641241 0.46329,1.902372 0.44093,0.115691 0.97803,0.0418 1.34123,0.425906 0.0915,3.37222 0.0131,6.770172 0.0392,10.152278 -0.0258,2.845889 0.0511,5.706129 -0.0375,8.543284 -0.6507,0.281977 -1.38578,0.282449 -2.0723,0.418241 0.11767,0.864607 0.23825,1.728532 0.35988,2.592195 2.32313,-0.117083 4.64611,-0.115542 6.96906,0.0089 -0.1382,-0.874774 -0.27414,-1.750162 -0.40934,-2.625743 -0.50899,-0.127838 -1.11394,-0.04376 -1.55721,-0.411531 -0.10725,-2.62073 -0.0155,-5.27205 -0.046,-7.904516 0.2993,-0.297287 1.02703,-0.03275 1.48455,-0.122564 2.37225,0 4.74451,0 7.11677,0 -0.0247,2.674639 0.0488,5.368768 -0.0358,8.031554 -0.69443,0.242668 -1.41662,0.300161 -2.12517,0.442842 0.11986,0.860361 0.23831,1.721062 0.35988,2.581013 2.34872,-0.117268 4.69721,-0.113346 7.04581,0.0067 -0.13765,-0.874332 -0.27543,-1.748629 -0.41105,-2.623507 -0.52061,-0.11975 -1.11573,-0.06008 -1.57938,-0.40482 -0.11115,-2.507736 -0.0161,-5.047616 -0.0478,-7.567688 0.016,-3.702586 -0.0319,-7.411042 0.0239,-11.109981 0.64421,-0.369477 1.45164,-0.322585 2.16099,-0.480865 -0.11861,-0.864249 -0.2367,-1.728628 -0.35817,-2.592195 -2.34869,0.12062 -4.6972,0.110701 -7.04581,-0.0067 0.13773,0.872817 0.27426,1.745959 0.41104,2.619033 0.50731,0.161695 1.19847,0.006 1.57938,0.527833 0.0515,2.513992 0.008,5.0375 0.0222,7.555163 -2.86711,0 -5.73421,0 -8.60132,0 0.0275,-2.561108 -0.0542,-5.137295 0.0392,-7.689358 0.66346,-0.258987 1.36396,-0.289093 2.04671,-0.416003 -0.11808,-0.864512 -0.23875,-1.728411 -0.35988,-2.592195 -2.29801,0.124236 -4.59607,0.113832 -6.89401,-0.0067 0.0392,0.249006 0.0785,0.498011 0.11768,0.747017 z"
       id="path33" /><path
       style="font-size:28.7073px;line-height:125%;font-family:Lusitana;-inkscape-font-specification:Lusitana;letter-spacing:0px;word-spacing:0px;fill:#f9f9f9;stroke-width:0.264583px"
       d="m 230.5555,74.097858 c -1.19678,-0.03699 -2.39347,-0.08004 -3.59027,-0.116301 0.13834,0.875787 0.2749,1.752059 0.41275,2.62798 0.59142,0.161186 1.34138,-0.0027 1.82669,0.509939 0.051,6.123154 0.0174,12.259694 0.0168,18.386987 0.0264,0.562051 -0.61005,0.312223 -0.86587,0.470821 -0.35593,0.191785 -1.18089,-0.09104 -1.20602,0.416553 0.10847,0.789074 0.21627,1.578312 0.3273,2.366776 2.49017,-0.124409 4.98033,-0.107286 7.47051,0.0067 -0.13654,-0.877459 -0.27345,-1.754821 -0.40935,-2.632453 -0.67908,-0.143423 -1.4513,-0.03235 -2.05865,-0.483101 -0.1053,-2.053293 -0.0135,-4.154135 -0.0443,-6.225293 -0.15857,-0.895603 0.10203,-1.241549 0.78594,-1.032405 0.52558,0.069 1.21025,-0.282229 1.44792,0.54729 1.73637,3.179919 3.29257,6.520241 5.0115,9.71637 1.75928,-0.08289 3.51781,-0.07334 5.27541,0.06262 -0.22067,-0.78304 -0.44249,-1.565522 -0.66348,-2.348407 -1.17691,-0.0032 -2.1472,-1.006548 -2.79776,-2.214078 -1.31402,-2.167079 -2.48674,-4.472333 -3.75684,-6.683032 1.79643,-0.900105 3.19805,-3.108555 3.32985,-5.662748 0.24154,-2.35529 -0.38246,-5.010984 -2.00933,-6.272886 -1.97388,-1.704867 -4.4316,-1.65428 -6.69861,-1.502739 -0.60139,0.02047 -1.20278,0.04093 -1.80417,0.0614 z m 3.46406,2.625738 c 1.52784,-0.06415 3.39606,0.87424 3.70127,3.069269 0.28882,1.99062 -0.12264,4.536128 -1.71139,5.35517 -1.11993,0.651488 -2.37823,0.577576 -3.57437,0.510693 0.016,-2.936138 -0.0319,-5.935499 0.0239,-8.832249 0.51646,-0.09973 1.03997,-0.0912 1.56062,-0.102883 z"
       id="path32" /><path
       style="font-size:28.7073px;line-height:125%;font-family:Lusitana;-inkscape-font-specification:Lusitana;letter-spacing:0px;word-spacing:0px;fill:#f9f9f9;stroke-width:0.264583px"
       d="m 73.007992,74.003918 c -1.806736,0.206954 -3.622207,-0.008 -5.432321,-0.02237 0.137974,0.864703 0.276701,1.729203 0.412755,2.594431 0.592603,0.159596 1.339132,0.0026 1.828398,0.50994 0.0506,6.055539 0.01818,12.12405 0.01622,18.183391 -0.01802,0.773206 -0.837783,0.582344 -1.240066,0.751921 -0.587195,0.02578 -1.146113,0.08143 -0.795203,1.007736 0.202634,0.517059 -0.04573,1.762794 0.502003,1.724991 2.152665,-0.131468 4.305426,-0.08667 6.458152,0.01559 -0.138865,-0.876986 -0.27418,-1.754928 -0.411048,-2.632453 -0.660508,-0.172526 -1.495978,0.01848 -2.026248,-0.597166 -0.123419,-1.824554 -0.01418,-3.691017 -0.05117,-5.53106 10e-7,-3.034291 0,-6.068583 0,-9.102874 2.199005,5.976186 4.398626,11.951982 6.597242,17.928415 0.449337,-0.164281 1.056735,-0.06986 1.140292,-0.840745 2.059473,-5.721983 4.118944,-11.443967 6.178416,-17.165951 -0.01717,4.94942 0.03427,9.905759 -0.02558,14.850882 -0.393976,0.328313 -0.982885,0.262476 -1.450232,0.386104 -0.728679,-0.138795 -0.734057,0.428686 -0.535514,1.19175 0.185785,0.522818 -0.0647,1.75218 0.605919,1.492969 2.366417,-0.14982 4.733449,-0.05435 7.100389,0.01566 -0.138657,-0.877193 -0.276676,-1.754564 -0.412748,-2.632453 -0.67058,-0.131641 -1.427046,-0.03405 -2.03648,-0.431659 -0.09603,-2.919032 -0.01327,-5.867869 -0.04094,-8.798253 0.0127,-3.151437 -0.02527,-6.309136 0.01877,-9.456703 0.503717,-0.904427 1.53099,-0.734057 2.292206,-0.896384 0.344468,-0.263673 -0.146106,-1.331422 -0.140587,-1.920797 0.07854,-0.942114 -0.637605,-0.564581 -1.098086,-0.610802 -1.541871,0.02235 -3.088117,0.173124 -4.626758,-0.02306 -0.228345,1.74501 -0.955645,3.248069 -1.460485,4.848306 -1.143631,3.198337 -2.318039,6.375932 -3.359625,9.635349 -0.364592,1.078537 -0.713741,2.166235 -1.088071,3.238994 -1.245154,-3.010341 -2.522765,-6.045026 -3.542511,-9.129484 -1.020308,-2.876087 -2.122031,-5.688842 -3.027441,-8.637898 -0.116548,0.01789 -0.233098,0.03579 -0.349646,0.05368 z"
       id="path31" /><path
       style="font-size:28.7073px;line-height:125%;font-family:Lusitana;-inkscape-font-specification:Lusitana;letter-spacing:0px;word-spacing:0px;fill:#f9f9f9;stroke-width:0.264583px"
       d="m 175.5313,73.970368 c -1.67017,0.206375 -3.34785,-0.01435 -5.02127,-0.02013 0.13833,0.874741 0.27548,1.749809 0.40935,2.625744 0.5927,0.160635 1.34071,5.99e-4 1.8301,0.50994 0.0507,6.145017 0.0179,12.302948 0.0164,18.451803 0.0102,0.549857 -0.64387,0.298088 -0.89573,0.468105 -0.36221,0.196435 -1.19617,-0.08915 -1.22703,0.421574 0.10792,0.790084 0.21846,1.579551 0.32911,2.368988 2.23145,-0.129054 4.46296,-0.108335 6.69446,0.0067 -0.13777,-0.878925 -0.27659,-1.757569 -0.41275,-2.636926 -0.66086,-0.143532 -1.43319,-0.01189 -2.01943,-0.449552 -0.0758,-4.522165 -0.0107,-9.061251 -0.0324,-13.5899 0.0643,-0.447433 -0.19053,-2.11796 0.2675,-1.05672 3.48798,5.900648 6.97638,11.800875 10.4641,17.701786 0.65813,-0.09175 1.32102,-0.05809 1.97848,0.0246 0.003,-7.235048 -0.0383,-14.472386 -0.0102,-21.705998 0.13803,-0.402953 0.68795,-0.197311 0.95372,-0.359936 0.34116,-0.218797 1.28523,0.160856 1.14561,-0.521682 -0.10333,-0.751503 -0.20667,-1.503006 -0.31187,-2.254065 -2.23998,0.129677 -4.48002,0.107804 -6.72004,-0.0067 0.13853,0.877819 0.27548,1.756074 0.41104,2.634689 0.67288,0.127256 1.41587,0.03841 2.03307,0.433896 0.10716,1.992653 0.0121,4.026463 0.0444,6.034291 0,2.468437 0,4.936875 0,7.405312 -3.01295,-5.300926 -6.37696,-10.255043 -9.28136,-15.664006 -0.28205,-0.344158 -0.0822,-1.124906 -0.64521,-0.821816 z"
       id="path30" /><path
       style="font-size:28.7073px;line-height:125%;font-family:Lusitana;-inkscape-font-specification:Lusitana;letter-spacing:0px;word-spacing:0px;fill:#f9f9f9;stroke-width:0.264583px"
       d="m 200.78093,73.717634 c -3.26006,0.07596 -6.51517,2.201582 -8.28249,5.850349 -1.65574,3.428395 -1.81069,7.847779 -0.91396,11.66043 0.87034,3.675518 3.33792,6.488425 6.17784,7.336835 3.37505,0.993443 7.07335,0.480849 10.10706,-1.761649 0.48431,-0.620689 0.2697,-1.676736 0.34471,-2.491506 0.0689,-1.466113 -0.13311,-2.979904 0.13797,-4.412812 0.49385,-0.533479 1.23711,-0.261568 1.83523,-0.380218 -0.12298,-0.887271 -0.24636,-1.774446 -0.37012,-2.661529 -2.76678,0.220222 -5.56272,0.220679 -8.29942,-0.01565 0.14112,0.897275 0.28055,1.795002 0.41957,2.69284 0.98087,0.0886 1.94355,-0.117462 2.84835,0.41824 0.46614,0.925087 0.16448,2.14164 0.25242,3.18802 0.13573,1.015624 -0.27087,2.029935 -1.01881,2.391438 -1.58392,0.884824 -3.43606,0.837128 -5.06667,0.184308 -2.55477,-1.079674 -3.99512,-4.59268 -4.25618,-7.923517 -0.34071,-3.258108 0.16439,-6.870802 2.01491,-9.245056 1.65756,-2.238118 4.35192,-2.422066 6.47448,-1.750749 1.28106,0.399794 2.58603,1.474991 2.85926,3.286463 0.118,0.516226 0.16582,1.052868 0.23469,1.582569 0.50785,0.07125 1.01555,0.144302 1.5231,0.219184 0.10044,-2.143059 0.33121,-4.338407 0.002,-6.461476 -0.043,-0.765856 -0.7371,-0.491679 -1.13763,-0.688865 -1.94438,-0.480818 -3.89072,-1.141805 -5.88601,-1.017644 z"
       id="path29" /><path
       style="font-size:28.7073px;line-height:125%;font-family:Lusitana;-inkscape-font-specification:Lusitana;letter-spacing:0px;word-spacing:0px;fill:#f9f9f9;stroke-width:0.264583px"
       d="m 123.80913,73.717634 c -3.14159,0.07297 -6.31392,2.001648 -8.07769,5.484091 -1.5888,3.171805 -1.92554,7.245895 -1.30157,10.900084 0.80319,4.580974 3.9738,8.058506 7.47528,8.718838 2.87471,0.570693 5.93064,0.07307 8.49611,-1.782207 0.70862,-1.15514 0.81324,-2.736269 1.1871,-4.099649 0.0198,-0.452002 0.38415,-1.324618 0.0318,-1.499554 -0.44331,0.02591 -1.13889,-0.598727 -1.41845,-0.154622 -0.63098,2.311368 -2.12064,4.254093 -4.00328,4.681363 -2.29032,0.674462 -4.91677,-0.08903 -6.4665,-2.513083 -1.54159,-2.194334 -2.17219,-5.271935 -2.02277,-8.15045 0.0764,-3.16736 1.13019,-6.684994 3.46383,-8.050829 1.80785,-1.008126 3.91033,-0.967516 5.77281,-0.236069 1.2693,0.487963 2.21715,1.972383 2.3758,3.691909 0.0343,0.599057 0.0708,1.183954 0.64435,1.033111 0.4339,-0.02175 1.21019,0.50362 1.03735,-0.478952 0.0872,-1.936537 0.27154,-3.922724 -0.0358,-5.837472 -0.041,-0.751053 -0.71631,-0.49731 -1.10864,-0.691102 -1.99824,-0.487284 -4.00139,-1.139565 -6.04975,-1.015407 z"
       id="path28" /><path
       style="font-size:28.7073px;line-height:125%;font-family:Lusitana;-inkscape-font-specification:Lusitana;letter-spacing:0px;word-spacing:0px;fill:#f9f9f9;stroke-width:0.264583px"
       d="m 39.46235,73.717634 c -3.33242,0.07457 -6.663972,2.301997 -8.397965,6.095213 -1.54693,3.396547 -1.675019,7.689408 -0.800485,11.413467 0.872124,3.674977 3.338666,6.491342 6.179945,7.338415 3.374802,0.995349 7.072435,0.47994 10.106958,-1.76113 0.48397,-0.620693 0.270522,-1.676725 0.343824,-2.491518 0.06623,-1.463186 -0.13225,-2.973786 0.137154,-4.403853 0.482487,-0.548979 1.237839,-0.267218 1.833514,-0.389165 -0.121036,-0.887459 -0.24356,-1.774569 -0.366703,-2.661529 -2.767357,0.220249 -5.563836,0.220611 -8.30113,-0.01565 0.140091,0.897704 0.281862,1.794956 0.421282,2.69284 0.97766,0.08988 1.939466,-0.118197 2.841521,0.413767 0.478295,0.919665 0.166104,2.145247 0.257545,3.192493 0.138415,1.015992 -0.270601,2.02815 -1.017113,2.391438 -1.59137,0.888486 -3.451931,0.836806 -5.089071,0.176271 -2.573374,-1.110027 -4.000154,-4.667753 -4.24419,-8.029175 -0.344978,-3.369678 0.261548,-7.12967 2.281204,-9.44399 1.782669,-2.041745 4.415974,-2.118361 6.587672,-1.291108 1.187973,0.440074 2.281752,1.58866 2.513044,3.249972 0.198322,0.442486 -0.01728,1.375589 0.382086,1.496369 0.428031,-0.01514 1.064691,0.303143 1.359707,0.08071 0.09904,-2.105201 0.319402,-4.262259 -0.0069,-6.347318 -0.04304,-0.765856 -0.737104,-0.491679 -1.137633,-0.688865 -1.943863,-0.480758 -3.889486,-1.142042 -5.884302,-1.017644 z"
       id="text1" /><ellipse
       style="opacity:1;fill:#deaa87;fill-rule:evenodd;stroke:#000000;stroke-width:0.2;stroke-linejoin:bevel"
       id="path1"
       cx="135.22604"
       cy="50.787384"
       rx="18.932209"
       ry="18.509949" /><ellipse
       style="opacity:1;fill:#c87137;fill-rule:evenodd;stroke:#000000;stroke-width:0.2;stroke-linejoin:bevel"
       id="ellipse40"
       cx="135.22604"
       cy="50.787384"
       rx="15.985072"
       ry="16.059952" /><ellipse
       style="opacity:1;fill:#1a1a1a;fill-rule:evenodd;stroke:#000000;stroke-width:0.2;stroke-linejoin:bevel"
       id="path14"
       cx="78.01651"
       cy="34.809799"
       rx="2.3017311"
       ry="2.3043339" /><ellipse
       style="opacity:1;fill:#00aad4;fill-rule:evenodd;stroke:#000000;stroke-width:0.2;stroke-linejoin:bevel"
       id="ellipse37"
       cx="135.22604"
       cy="50.787384"
       rx="12.021286"
       ry="12.034918" /><path
       style="fill:none;fill-rule:evenodd;stroke:#000000;stroke-width:0.264583px;stroke-linecap:butt;stroke-linejoin:miter;stroke-opacity:1"
       d="m 124.13624,46.092657 h 22.16832"
       id="path42" /><path
       style="fill:none;fill-rule:evenodd;stroke:#000000;stroke-width:0.264583px;stroke-linecap:butt;stroke-linejoin:miter;stroke-opacity:1"
       d="M 135.41174,38.752253 V 62.813501"
       id="path44" /><path
       style="fill:none;fill-rule:evenodd;stroke:#000000;stroke-width:0.264583px;stroke-linecap:butt;stroke-linejoin:miter;stroke-opacity:1"
       d="m 124.12262,55.390357 h 22.16832"
       id="path45" /></g></svg>
